<svg id="Icons" height="512" viewBox="0 0 60 60" width="512" xmlns="http://www.w3.org/2000/svg"><circle cx="30" cy="30" fill="#fdc70e" r="29"/><path d="m43.18 42.26c-1.4 4.4-4.93 9.74-13.18 9.74s-11.78-5.34-13.18-9.74z" fill="#d39518"/><path d="m44 38.12a17.591 17.591 0 0 1 -.82 4.14 50.429 50.429 0 0 1 -13.18 1.74 50.429 50.429 0 0 1 -13.18-1.74 17.591 17.591 0 0 1 -.82-4.14c-.05-.74.54-1.3 1.12-1.07a39.761 39.761 0 0 0 12.88 1.95 39.761 39.761 0 0 0 12.88-1.95c.58-.23 1.17.33 1.12 1.07z" fill="#fff"/><path d="m32.356 17a2.643 2.643 0 0 0 1.156-.262 30.826 30.826 0 0 1 13.059-2.738 26.135 26.135 0 0 1 11.669 2.348 1.363 1.363 0 0 1 .76 1.229v1.992a1.369 1.369 0 0 1 -.4.967l-1.6 1.464v4a7.069 7.069 0 0 1 -7 7h-9.767a6.874 6.874 0 0 1 -6.85-6l-.28-2.258a3.127 3.127 0 0 0 -3.103-2.742 3.127 3.127 0 0 0 -3.1 2.741l-.283 2.259a6.874 6.874 0 0 1 -6.85 6h-9.767a7.069 7.069 0 0 1 -7-7v-4l-1.6-1.464a1.369 1.369 0 0 1 -.4-.967v-1.992a1.363 1.363 0 0 1 .76-1.229 26.135 26.135 0 0 1 11.669-2.348 30.826 30.826 0 0 1 13.059 2.738 2.643 2.643 0 0 0 1.156.262z" fill="#203135"/><g fill="#30454d"><path d="m8 22a1 1 0 0 1 -.707-1.707l2-2a1 1 0 0 1 1.414 1.414l-2 2a1 1 0 0 1 -.707.293z"/><path d="m10 27a1 1 0 0 1 -.707-1.707l7-7a1 1 0 0 1 1.414 1.414l-7 7a1 1 0 0 1 -.707.293z"/><path d="m38 22a1 1 0 0 1 -.707-1.707l2-2a1 1 0 0 1 1.414 1.414l-2 2a1 1 0 0 1 -.707.293z"/><path d="m40 27a1 1 0 0 1 -.707-1.707l7-7a1 1 0 0 1 1.414 1.414l-7 7a1 1 0 0 1 -.707.293z"/></g></svg>