<svg xmlns="http://www.w3.org/2000/svg" viewBox="0 0 2500 2500" width="2500" height="2500"><path fill="#FFF" d="M0 0h2500v2500H0z"/><g transform="translate(1514.0 255.0) rotate(0.0 330.5 280.0) scale(1.398950681168346 1.396700295551759)"><svg width="472.497" height="400.945" viewBox="0 0 472.497 400.945"><ellipse cx="270.557" cy="157.708" fill="#fff" rx="198.941" ry="154.707" transform="matrix(1 -.0049 .0049 1 -.7695 1.3276)"/><path d="M270.025 315.416c-53.318.001-103.497-16.045-141.433-45.248-38.468-29.613-59.767-69.2-59.974-111.47s20.703-82.063 58.878-112.053C165.45 16.832 215.982.266 269.784.003c53.83-.259 104.494 15.805 142.737 45.246 38.468 29.612 59.767 69.2 59.974 111.47s-20.703 82.063-58.878 112.053c-37.953 29.813-88.485 46.378-142.287 46.642l-1.305.002zm-.226-312.413.015 3c-108.042.53-195.605 69.015-195.195 152.666.197 40.377 20.665 78.286 57.633 106.744 37.192 28.632 86.596 44.282 139.049 44 52.475-.257 101.7-16.366 138.609-45.36 36.688-28.819 56.783-66.928 56.585-107.305C466.087 73.425 378.536 6 271.072 6c-.421 0-.837.001-1.259.003z" fill="#232323"/><ellipse cx="131.472" cy="355.514" fill="#fff" rx="41.838" ry="32.535"/><path d="M131.473 391.05c-24.724 0-44.838-15.941-44.838-35.536 0-19.594 20.114-35.535 44.838-35.535s44.838 15.941 44.838 35.535-20.115 35.536-44.838 35.536zm0-65.072c-21.415 0-38.838 13.249-38.838 29.535s17.423 29.536 38.838 29.536 38.838-13.25 38.838-29.536-17.423-29.535-38.838-29.535z" fill="#232323"/><ellipse cx="23.059" cy="382.346" fill="#fff" rx="20.059" ry="15.599"/><path d="M23.059 400.945C10.344 400.945 0 392.601 0 382.346c0-10.256 10.344-18.6 23.059-18.6s23.059 8.344 23.059 18.6c-.001 10.255-10.345 18.599-23.059 18.599zm0-31.198c-9.406 0-17.059 5.652-17.059 12.6s7.652 12.599 17.059 12.599 17.059-5.651 17.059-12.599-7.653-12.6-17.059-12.6z" fill="#232323"/></svg></g><g transform="translate(386.0 556.0) rotate(0.0 834.5 806.0) scale(1.404262766254615 1.4048211859584112)"><svg width="1188.524" height="1147.477" viewBox="0 0 1188.524 1147.477"><path d="M717.394 122.146c-.1.03-.21.05-.31.08-7.45 1.8-17.3 6.59-28.34 13.15-16.72 9.93-36.19 23.92-54.26 37.76-3.01 2.3-5.98 4.6-8.9 6.88-28.1 21.97-50.8 41.72-50.8 41.72s-44.93-57.71-66.62-69.22c-.05-.85-.11-1.68-.17-2.5-2.05-25.12-12.47-38.21-17.42-49.49-19.11-43.59 32.88-90.99 77.23-63.46 15.08-46.75 84.44-48.89 102.48-8.61.26.56.51 1.14.74 1.72 16.56-7.39 39.65-12.46 64.22 3.06 29 18.31 33.63 76.23-17.85 88.91z" fill="#232323"/><path d="M645.405 56.765a2.5 2.5 0 0 1-2.245-3.597c15.746-32.279 50.315-34.942 51.779-35.04a2.508 2.508 0 0 1 2.66 2.328 2.5 2.5 0 0 1-2.328 2.66c-.327.022-33.167 2.621-47.617 32.243a2.5 2.5 0 0 1-2.249 1.406z" fill="#fff"/><path d="M717.394 122.146c-.1.03-.21.05-.31.08-7.45 1.8-17.3 6.59-28.34 13.15-16.72 9.93-36.19 23.92-54.26 37.76-3.01 2.3-5.98 4.6-8.9 6.88-28.1 21.97-50.8 41.72-50.8 41.72s-44.93-57.71-66.62-69.22c-.05-.85-.11-1.68-.17-2.5-2.05-25.12-12.47-38.21-17.42-49.49-19.11-43.59 32.88-90.99 77.23-63.46 15.08-46.75 84.44-48.89 102.48-8.61.26.56.51 1.14.74 1.72 16.56-7.39 39.65-12.46 64.22 3.06 29 18.31 33.63 76.23-17.85 88.91z" fill="none"/><path d="M746.594 278.076c-.01.27-.02.55-.04.83-.01.32-.03.64-.07.96-.02.28-.04.57-.08.86v.02c-.04.41-.1.82-.16 1.24-.05.39-.12.79-.19 1.18 0 .03-.01.06-.02.09-.06.35-.13.71-.21 1.06-.24 1.14-.54 2.27-.91 3.39-.09.28-.18.56-.28.84-.22.67-.48 1.33-.75 1.99a34.265 34.265 0 0 1-1.08 2.38c-.19.38-.38.75-.58 1.12-.21.38-.42.76-.64 1.14-.22.37-.45.75-.68 1.12a62.729 62.729 0 0 1-1.44 2.12c-.06.07-.11.15-.16.22-.23.31-.46.61-.7.91-.28.35-.56.7-.85 1.05-.29.34-.59.68-.89 1.02-.02.02-.04.04-.05.06a39.103 39.103 0 0 1-1.85 1.91c-.32.31-.65.62-.98.93-.01 0-.02.01-.03.02-.34.31-.69.62-1.05.92-.31.26-.61.52-.93.77-.11.09-.22.18-.34.27-.31.24-.63.48-.95.72-.38.29-.77.57-1.17.84s-.8.54-1.21.8c-.34.22-.68.44-1.03.65l-.66.39c-.7.41-1.42.8-2.16 1.18-.48.25-.96.49-1.45.72-2.85 1.37-5.75 2.62-8.7 3.73-.49.19-.99.37-1.48.54-.66.23-1.33.46-1.99.68-.45.15-.9.3-1.35.44-.4.12-.8.25-1.21.37-.61.18-1.21.36-1.82.53-4.12 1.17-8.31 2.08-12.56 2.72-.51.08-1.02.16-1.53.23l-1.04.15c-.79.1-1.57.2-2.35.29-.87.1-1.74.19-2.6.26-1.57.15-3.12.26-4.65.35-8.2.48-16.41.17-24.54-.92-.7-.09-1.38-.19-2.04-.28-.27-.03-.54-.07-.8-.11l-1.87-.3c-3.15-.54-6.28-1.19-9.39-1.95l-.35-.09s.46 20.17 3.15 36.72c.78 4.83 1.75 9.35 2.96 12.97 0 0 0 .01-.01.03-.3 1.38 32.788 75.614 6.128 100.084-5.74 5.28-64.64-2.81-72 0-28.43-1.46-86.055-49.978-112.945-98.308-.3-.54-5.416-6.699-5.736-7.319-.4-.8 6.793-8.978 6.413-9.778 0 0 29.77-55.8 38.19-104.16.12-.66.23-1.32.34-1.98v-.01a83.483 83.483 0 0 1-8.72-4.03c-.98-.52-1.95-1.06-2.91-1.62-.88-.51-1.76-1.04-2.63-1.58a93.267 93.267 0 0 1-7.66-5.35c-.33-.25-.66-.51-.98-.78-.66-.53-1.31-1.06-1.95-1.6a79.716 79.716 0 0 1-3.74-3.38c-13.14-12.58-21.95-29.46-17.85-48.04 1.83-8.3 6.63-15.86 13.09-21.45.41-.36.84-.71 1.27-1.06.64-.51 1.3-1.01 1.98-1.49a40.496 40.496 0 0 1 7.15-4.04c6.74-2.95 14.26-3.96 21.72-2.25.99.23 1.97.5 2.96.83 10.25 3.39 17.23 8.25 23.65 14.63 3.61 3.58 7.05 7.65 10.79 12.2.42.5.84 1.01 1.26 1.53.84 1.03 1.71 2.09 2.6 3.17 1.78 2.17 3.65 4.42 5.65 6.78.51.6 1.01 1.17 1.5 1.71.32.35.64.69.96 1.02.31.34.63.66.94.96a30.808 30.808 0 0 0 1.78 1.67c.29.25.57.49.86.71 3.39 2.74 6.21 3.59 8.79 2.92.36-.09.73-.22 1.09-.38.9-.39 1.78-.97 2.65-1.73.34-.31.69-.64 1.04-.99 3.45-3.57 6.89-9.81 11.3-17.74.93-1.67 1.9-3.31 2.9-4.93.67-1.08 1.36-2.15 2.05-3.21.7-1.05 1.41-2.1 2.13-3.13 1.45-2.06 2.94-4.06 4.45-6.01 7.95-10.21 16.67-18.7 23.72-24.18 3.27-2.55 6.88-4.73 10.76-6.57.01-.02.03-.03.04-.02 4.45-2.15 9.25-3.85 14.27-5.19 18.08-4.85 39.01-5.01 56.95-3.45 4.93.43 9.64.98 14 1.61-.3 7.64-.41 15.27-.35 22.91v.01c.1 14.09.81 28.16 2.13 42.19.07.77.14 1.53.23 2.28l.03.26c.08.75.18 1.49.28 2.22.1.72.2 1.43.31 2.14.16.95.32 1.89.49 2.82.12.59.23 1.17.35 1.75.13.64.27 1.28.42 1.9.09.4.18.8.27 1.19.16.64.32 1.28.48 1.91.02.05.03.1.04.15.2.74.4 1.47.61 2.2.41 1.44.84 2.84 1.3 4.22.56 1.71 1.16 3.38 1.78 5.02.69 1.84 1.42 3.64 2.17 5.4.38.88.76 1.76 1.14 2.63.28.64.57 1.28.86 1.91.49 1.08.98 2.15 1.48 3.22.4.85.79 1.69 1.19 2.52 1.39 2.92 2.78 5.8 4.12 8.68.26.55.52 1.11.77 1.66 1.45 3.14 2.82 6.29 4.04 9.52l.39 1.02c1.12 3.04 2.11 6.15 2.91 9.37.3 1.2.57 2.42.81 3.66.08.38.15.77.22 1.16.11.58.2 1.17.29 1.76.09.58.17 1.16.24 1.74.02.11.03.22.04.33.07.57.13 1.13.19 1.7 0 .03.01.06 0 .09.06.59.11 1.17.15 1.76.01.05.01.1.01.16.05.62.08 1.24.11 1.86.04.841.04 1.691.01 2.531z" fill="#fff"/><path d="M683.484 125.737c6.128 0 12.547.288 19.078.856 2.82.246 5.61.536 8.343.866a498.453 498.453 0 0 0-.172 17.676v.053a495.534 495.534 0 0 0 2.155 42.693c.068.749.146 1.598.243 2.41l.006.052.021.176c.088.829.197 1.636.302 2.402a136.018 136.018 0 0 0 .337 2.312c.165.979.33 1.946.505 2.904l.021.111.148.743c.068.343.135.685.203 1.013.154.754.303 1.43.457 2.064.089.396.178.793.268 1.18l.024.099a389.644 389.644 0 0 0 .526 2.082l.024.09c.208.771.417 1.533.631 2.278.444 1.56.895 3.024 1.369 4.446a124.694 124.694 0 0 0 1.864 5.259c.68 1.812 1.422 3.659 2.279 5.672l.043.1c.369.855.739 1.71 1.107 2.554.295.676.602 1.352.894 1.985.499 1.101.999 2.191 1.516 3.297l.315.671c.299.639.597 1.271.886 1.872l1.158 2.427a734.672 734.672 0 0 1 2.954 6.235c.247.524.495 1.057.749 1.614 1.604 3.475 2.835 6.375 3.883 9.147l.376.986c1.121 3.046 2.006 5.895 2.707 8.716a64.102 64.102 0 0 1 .761 3.444c.068.321.125.65.185.98l.012.064c.097.507.174 1.022.256 1.562.08.511.15 1.023.212 1.534l.023.169c.005.058.012.116.019.174.056.454.104.902.153 1.354.005.104.013.209.023.313.053.522.098 1.036.133 1.559l.004.057.012.177c.043.542.069 1.084.097 1.665.03.634.033 1.316.007 2.027-.007.201-.014.41-.029.619a5.02 5.02 0 0 0-.012.245 4.544 4.544 0 0 1-.026.397 8.045 8.045 0 0 0-.033.345c-.01.144-.017.292-.037.441a7.26 7.26 0 0 0-.037.341c-.028.26-.066.521-.104.786l-.016.11-.01.076a16.042 16.042 0 0 1-.175 1.031c-.041.241-.089.488-.144.729l-.023.104a25.705 25.705 0 0 1-.748 2.781l-.017.051c-.066.204-.131.408-.204.612l-.052.151c-.169.516-.39 1.068-.609 1.605a28.1 28.1 0 0 1-.887 1.952 31.24 31.24 0 0 1-.48.929c-.18.326-.36.652-.548.978a67.75 67.75 0 0 1-.572.943c-.194.299-.388.599-.59.89l-.042.061c-.179.265-.365.529-.552.794a7.477 7.477 0 0 0-.218.302c-.17.227-.339.448-.514.667l-.043.054c-.236.295-.472.59-.715.884a69.236 69.236 0 0 1-.92 1.051 31.97 31.97 0 0 1-1.454 1.492c-.244.236-.494.473-.749.712a6.22 6.22 0 0 0-.122.107c-.277.252-.562.505-.867.76l-.253.213c-.171.145-.34.289-.519.429a4.56 4.56 0 0 0-.108.087c-.047.038-.093.077-.144.115l-.063.048c-.287.222-.582.443-.878.665l-.04.03c-.292.223-.591.438-.882.634l-.057.039c-.336.227-.673.454-1.018.673l-.072.046c-.274.177-.547.355-.791.502l-.337.199-.31.183c-.557.327-1.167.66-1.897 1.035-.445.231-.846.431-1.227.61l-.051.024a102.02 102.02 0 0 1-8.213 3.522l-.057.021c-.422.164-.853.319-1.286.469-.634.221-1.278.442-1.94.663-.395.131-.789.263-1.184.386-.179.054-.358.11-.538.166-.198.062-.397.124-.608.186l-.377.111c-.453.134-.902.267-1.386.402a95.625 95.625 0 0 1-11.846 2.564l-.082.013c-.448.07-.895.14-1.378.207l-.999.144-.121.015c-.707.09-1.406.179-2.097.259a72.505 72.505 0 0 1-2.488.248c-1.337.127-2.787.236-4.43.333a122.29 122.29 0 0 1-23.422-.881c-.436-.056-.864-.116-1.284-.175l-.71-.099-.157-.02c-.184-.021-.368-.049-.501-.069l-1.1-.176-.743-.119a131.803 131.803 0 0 1-8.905-1.849l-.375-.096a6.006 6.006 0 0 0-5.194 1.143 5.998 5.998 0 0 0-2.248 4.817c.019.84.501 20.778 3.225 37.54.855 5.291 1.86 9.76 2.991 13.298.229 1.044.748 2.435 1.655 4.867 2.919 7.828 9.756 26.158 12.996 44.967 2.568 14.914 3.533 34.566-6.252 44.154-.777.211-3.215.676-9.629.676-7.917 0-18.312-.667-28.365-1.313-9.058-.582-17.613-1.131-23.584-1.131-3.38 0-5.686.166-7.417.553-12.195-1.132-32.175-12.547-52.528-30.066-22.375-19.26-42.264-42.988-54.564-65.095-.363-.654-.771-1.176-3.151-4.13l-.524-.651.7-.926c1.991-2.627 3.487-4.601 4.129-6.466 3.853-7.347 30.344-58.997 38.37-105.098.12-.66.231-1.32.341-1.981l.014-.084a5.997 5.997 0 0 0-3.727-6.584 77.451 77.451 0 0 1-8.099-3.745 77.842 77.842 0 0 1-2.712-1.51 96.674 96.674 0 0 1-2.448-1.47 87.483 87.483 0 0 1-7.167-5.005l-.059-.045a16.99 16.99 0 0 1-.739-.588l-.11-.09c-.622-.5-1.234-.999-1.816-1.489a73.847 73.847 0 0 1-3.481-3.146c-6.443-6.168-11.15-12.802-13.989-19.715-3.091-7.525-3.814-15.162-2.151-22.699 1.502-6.814 5.464-13.279 11.19-18.234.346-.304.71-.599 1.074-.895.564-.449 1.12-.867 1.65-1.243.399-.275.798-.55 1.187-.804a34.885 34.885 0 0 1 4.935-2.66c3.91-1.711 7.927-2.579 11.94-2.579 2.033 0 4.063.229 6.016.677.859.2 1.652.421 2.434.682 8.439 2.792 14.811 6.736 21.309 13.194 3.251 3.224 6.382 6.886 10.38 11.75l.04.048c.396.471.791.952 1.206 1.465a810.288 810.288 0 0 0 2.61 3.182 553.594 553.594 0 0 0 5.718 6.861 77.467 77.467 0 0 0 1.645 1.874c.34.371.679.733 1.019 1.084.407.442.799.83 1.078 1.102a35.707 35.707 0 0 0 1.511 1.442c.203.189.404.364.582.517.344.297.686.588 1.072.885 3.699 2.973 7.231 4.418 10.796 4.418 1.071 0 2.142-.136 3.183-.404.672-.169 1.35-.405 2.017-.699 1.441-.628 2.849-1.538 4.186-2.705l.098-.087a36.57 36.57 0 0 0 1.238-1.179l.072-.074c3.927-4.064 7.474-10.442 11.964-18.517l.264-.474a119.564 119.564 0 0 1 2.757-4.687 172.812 172.812 0 0 1 1.961-3.072 160.086 160.086 0 0 1 2.026-2.978 156.073 156.073 0 0 1 4.277-5.777c6.906-8.869 15.168-17.299 22.676-23.135 2.841-2.215 6.085-4.193 9.641-5.88l.111-.054c3.892-1.877 8.324-3.485 13.183-4.782 10.197-2.739 22.239-4.126 35.793-4.127zm-.003-6c-12.581 0-25.57 1.169-37.347 4.329-5.02 1.34-9.82 3.04-14.27 5.19a.015.015 0 0 0-.01-.004c-.01 0-.023.009-.03.024-3.88 1.84-7.49 4.02-10.76 6.57-7.05 5.48-15.77 13.97-23.72 24.18-1.51 1.95-3 3.95-4.45 6.01-.72 1.03-1.43 2.08-2.13 3.13-.69 1.06-1.38 2.13-2.05 3.21-1 1.62-1.97 3.26-2.9 4.93-4.41 7.93-7.85 14.17-11.3 17.74-.35.35-.7.68-1.04.99-.87.76-1.75 1.34-2.65 1.73-.36.16-.73.29-1.09.38a6.72 6.72 0 0 1-1.699.218c-2.119 0-4.429-.986-7.091-3.138-.29-.22-.57-.46-.86-.71a30.808 30.808 0 0 1-1.78-1.67c-.31-.3-.63-.62-.94-.96-.32-.33-.64-.67-.96-1.02-.49-.54-.99-1.11-1.5-1.71-2-2.36-3.87-4.61-5.65-6.78-.89-1.08-1.76-2.14-2.6-3.17-.42-.52-.84-1.03-1.26-1.53-3.74-4.55-7.18-8.62-10.79-12.2-6.42-6.38-13.4-11.24-23.65-14.63-.99-.33-1.97-.6-2.96-.83a32.969 32.969 0 0 0-7.374-.833c-4.963 0-9.831 1.106-14.346 3.083a40.496 40.496 0 0 0-7.15 4.04c-.68.48-1.34.98-1.98 1.49-.43.35-.86.7-1.27 1.06-6.46 5.59-11.26 13.15-13.09 21.45-4.1 18.58 4.71 35.46 17.85 48.04 1.21 1.17 2.46 2.29 3.74 3.38.64.54 1.29 1.07 1.95 1.6.32.27.65.53.98.78 2.48 1.93 5.05 3.71 7.66 5.35.87.54 1.75 1.07 2.63 1.58.96.56 1.93 1.1 2.91 1.62 2.91 1.55 5.84 2.9 8.72 4.03v.01c-.11.66-.22 1.32-.34 1.98-8.42 48.36-38.19 104.16-38.19 104.16.38.8-6.813 8.978-6.414 9.778.32.62 5.437 6.779 5.736 7.319 26.89 48.33 84.515 96.848 112.945 98.308 1.148-.438 3.55-.611 6.81-.611 12.248 0 36.596 2.445 51.949 2.445 6.75 0 11.762-.473 13.241-1.833 26.66-24.47-6.428-98.704-6.128-100.084.01-.02.01-.03.01-.03-1.21-3.62-2.18-8.14-2.96-12.97-2.69-16.55-3.15-36.72-3.15-36.72l.35.09c3.11.76 6.24 1.41 9.39 1.95l1.87.3c.26.04.53.08.8.11.66.09 1.34.19 2.04.28a128.336 128.336 0 0 0 24.54.92c1.53-.09 3.08-.2 4.65-.35.86-.07 1.73-.16 2.6-.26.78-.09 1.56-.19 2.35-.29l1.04-.15c.51-.07 1.02-.15 1.53-.23 4.25-.64 8.44-1.55 12.56-2.72.61-.17 1.21-.35 1.82-.53.41-.12.81-.25 1.21-.37.45-.14.9-.29 1.35-.44.66-.22 1.33-.45 1.99-.68.49-.17.99-.35 1.48-.54 2.95-1.11 5.85-2.36 8.7-3.73.49-.23.97-.47 1.45-.72.74-.38 1.46-.77 2.16-1.18l.66-.39c.35-.21.69-.43 1.03-.65.41-.26.81-.53 1.21-.8s.79-.55 1.17-.84c.32-.24.64-.48.95-.72.12-.09.23-.18.34-.27.32-.25.62-.51.93-.77.36-.3.71-.61 1.05-.92.01-.01.02-.02.03-.02.33-.31.66-.62.98-.93a39.103 39.103 0 0 0 1.85-1.91c.01-.02.03-.04.05-.06.3-.34.6-.68.89-1.02.29-.35.57-.7.85-1.05.24-.3.47-.6.7-.91.05-.07.1-.15.16-.22.24-.34.48-.68.71-1.02.25-.36.49-.73.73-1.1.23-.37.46-.75.68-1.12.22-.38.43-.76.64-1.14a39.344 39.344 0 0 0 1.18-2.38c.17-.38.33-.75.48-1.12.27-.66.53-1.32.75-1.99.1-.28.19-.56.28-.84.37-1.12.67-2.25.91-3.39.08-.35.15-.71.21-1.06.01-.03.02-.06.02-.09.07-.39.14-.79.19-1.18.06-.42.12-.83.16-1.24v-.02c.04-.29.06-.58.08-.86.04-.32.06-.64.07-.96.02-.28.03-.56.04-.83.03-.84.03-1.69-.01-2.53-.03-.62-.06-1.24-.11-1.86 0-.06 0-.11-.01-.16-.04-.59-.09-1.17-.15-1.76.01-.03 0-.06 0-.09-.06-.57-.12-1.13-.19-1.7-.01-.11-.02-.22-.04-.33-.07-.58-.15-1.16-.24-1.74-.09-.59-.18-1.18-.29-1.76-.07-.39-.14-.78-.22-1.16-.24-1.24-.51-2.46-.81-3.66-.8-3.22-1.79-6.33-2.91-9.37l-.39-1.02c-1.22-3.23-2.59-6.38-4.04-9.52-.25-.55-.51-1.11-.77-1.66-1.34-2.88-2.73-5.76-4.12-8.68-.4-.83-.79-1.67-1.19-2.52-.5-1.07-.99-2.14-1.48-3.22-.29-.63-.58-1.27-.86-1.91-.38-.87-.76-1.75-1.14-2.63-.75-1.76-1.48-3.56-2.17-5.4-.62-1.64-1.22-3.31-1.78-5.02-.46-1.38-.89-2.78-1.3-4.22-.21-.73-.41-1.46-.61-2.2-.01-.05-.02-.1-.04-.15-.16-.63-.32-1.27-.48-1.91-.09-.39-.18-.79-.27-1.19-.15-.62-.29-1.26-.42-1.9-.12-.58-.23-1.16-.35-1.75-.17-.93-.33-1.87-.49-2.82-.11-.71-.21-1.42-.31-2.14-.1-.73-.2-1.47-.28-2.22l-.03-.26c-.09-.75-.16-1.51-.23-2.28-1.32-14.03-2.03-28.1-2.13-42.19v-.01c-.06-7.64.05-15.27.35-22.91-4.36-.63-9.07-1.18-14-1.61-6.253-.546-12.868-.881-19.602-.881z" fill="#232323"/><path d="M616.424 156.743a5.083 5.083 0 0 0 2.806 3.855 7.8 7.8 0 0 0 3.606.658 13.338 13.338 0 0 0 6.641-2.223c.877-.535 1.742-1.062 2.559-1.591l4.718-2.982c3.006-1.859 5.688-3.505 8.239-4.817 2.568-1.329 4.872-2.443 7.526-3.779 1.339-.631 2.771-1.392 4.417-2.1 1.644-.802 3.463-1.481 5.62-2.609l1.091-.57a6.626 6.626 0 0 0 1.513-10.608 20.134 20.134 0 0 0-7.193-4.439 25.63 25.63 0 0 0-8.508-1.606 29.204 29.204 0 0 0-8.771 1.176 32.067 32.067 0 0 0-7.982 3.605 35.318 35.318 0 0 0-11.622 11.663 33.157 33.157 0 0 0-3.315 7.176 28.618 28.618 0 0 0-.961 3.847c-.123.655-.21 1.321-.276 2.009l-.148 2.217c-.026.373-.011.748.04 1.118zm7.485 18.458a2.026 2.026 0 0 0-.49 2.823c4.115 5.577 23.969 10.296 36.56 6.371 10.248-3.197 7.972-12.185 5.65-17.342a3.943 3.943 0 0 0-5.248-1.973c-14.205 6.512-29.344 8.714-35.63 9.777a2.022 2.022 0 0 0-.842.344zm87.348-9.23a2.036 2.036 0 0 1 1.206 2.615c-2.034 5.536-8.614 12.704-18.609 11.207-8.974-1.346-11.513-7.118-10.557-12.692l.001-.003a3.964 3.964 0 0 1 4.587-3.222c11.496 1.868 16.146 2.524 22.498 1.977.296-.026.594.015.874.118z" fill="#232323"/><path d="M540.064 246.277c-13.466 1.735-28.246-2.271-36.107-5.335" fill="#fff"/><path d="M533.326 249.688c-11.045 0-22.533-2.861-30.459-5.951a3 3 0 1 1 2.18-5.59c8.963 3.493 22.765 6.687 34.634 5.154a3 3 0 1 1 .767 5.951c-2.324.3-4.714.436-7.122.436zm183.758-127.462c-.3 7.64-.41 15.27-.35 22.91-2.33-.88-4.47-1.65-6.49-2.24-2.51-.74-4.74-1.34-7.32-2.07-1.3-.33-2.7-.76-4.28-1.11-1.6-.43-3.33-.72-5.43-1.36l-1.07-.32c-.6-.18-1.16-.46-1.68-.81-.72-.51-1.3-1.14-1.72-1.85a5.997 5.997 0 0 1 .25-6.49c1.49-2.11 3.4-3.87 5.62-5.17 2.25-1.37 4.71-2.34 7.28-2.88.39-.08.79-.16 1.19-.22 2.24-.37 4.53-.45 6.8-.23 2.57.25 5.09.84 7.51 1.76-.1.03-.21.05-.31.08zM644.021 348.82a.285.285 0 0 1-.089-.023c-45.454-13.737-42.063-47.283-37.275-53.25 14.956 10.436 36.24 17.022 36.24 17.022s-1.023 19.622 1.124 36.251zm-108.32-130.09a3.003 3.003 0 0 1-2.896-2.223c-9.459-35.208-38.309-34.586-39.545-34.532-1.635.036-3.046-1.23-3.109-2.882a2.995 2.995 0 0 1 2.868-3.113c.354-.028 34.845-.992 45.581 38.971a3 3 0 0 1-2.899 3.779zm155.196-7.192a2.999 2.999 0 0 1-1.604-5.536c4.881-3.083 7.505-5.68 7.8-7.72.327-2.257-2.12-5.243-5.891-9.542-11.161-12.728-8.313-21.418-7.952-22.366a2.996 2.996 0 0 1 3.871-1.736 3 3 0 0 1 1.736 3.871c.003 0-1.896 6.297 6.855 16.275 4.327 4.934 8.065 9.195 7.318 14.357-.582 4.02-3.831 7.699-10.535 11.933a2.979 2.979 0 0 1-1.598.464zm-45.316 23.058c1.644-1.218 3.57-1.821 5.433-2.122a19.79 19.79 0 0 1 5.558-.011 24.006 24.006 0 0 1 10.234 3.849 26.208 26.208 0 0 1 4.17 3.59c1.229 1.369 2.359 2.848 3.228 4.498 1.757 3.239 2.74 7.185 1.822 11.001a1.917 1.917 0 0 1-3.776-.337l-.008-.148c-.152-2.716-1.22-5.343-2.792-7.677-.807-1.153-1.694-2.267-2.729-3.25a22.69 22.69 0 0 0-3.292-2.725c-2.274-1.574-5.033-2.715-7.82-3.386-2.785-.646-5.699-.828-8.096.009l-.162.056a1.914 1.914 0 0 1-1.77-3.347z" fill="#232323"/><path d="m1003.795 931.569-2.525 31.481-930.46-32.94s170.53-488.2 234.73-515.34c31.62-13.36 96.48-27.858 127.488-41.079 9.756-4.159 37.672-20.851 37.672-20.851 56.086 91.269 120.57 97.994 120.57 97.994s38.374-7.516 57.252-83.734c0 0 38.199 16.16 39.149 16.46 64.49 20.23 162.768 67.148 162.768 67.148z" fill="#5D5DFF"/><path d="M70.814 930.108c64.991 90.222 274.837 74.978 333.711 65.038 56.062-4.032 604.437 40.094 668.673-90.27 77.989-158.271-96.339-398.354-142.215-462.58l-81.047-.765c-69.578-21.409-98.633-38.23-165.153-58.874-6.117-3.823-35.936-14.527-35.936-14.527l-178.151-15.292c-10.704 9.94-32.878 23.702-32.878 23.702s-100.659 24.865-132.275 38.23c-64.203 27.143-122.977 62.628-190.384 165.917C8.882 743.547 36.313 882.213 70.814 930.108z" fill="none"/><path d="m1183.549 1009.908-325.342 136.666a11.703 11.703 0 0 1-7.915.397l-380.016-115.615a13.335 13.335 0 0 1-9.389-11.438l-1.156-11.612 393.029-68.317 332.608 48.771a3.663 3.663 0 0 1 3.156 3.628v10.052a8.093 8.093 0 0 1-4.975 7.468z" fill="#d9c6f4"/><path d="M1186.255 988.565s.775.251 1.318 1.022c.553.785.784 1.505.784 1.505l-328.648 126.68a18.352 18.352 0 0 1-12.41.622l-385.531-110.258 358.589-94.384z" fill="#fff"/><g fill="#232323"><path d="m820.529 919.913 350.102 71.583-313.081 120.68-.153.062a12.297 12.297 0 0 1-4.758.953c-1.219 0-2.428-.18-3.593-.535l-.097-.029-364.521-104.249zm-.171-6.16-358.589 94.384L847.3 1118.395a18.346 18.346 0 0 0 12.409-.623l328.648-126.681s-.231-.72-.784-1.505c-.543-.771-1.318-1.022-1.318-1.022z"/><ellipse cx="912.948" cy="1080.678" rx="10.113" ry="4.093"/><ellipse cx="988.56" cy="1050.665" rx="10.113" ry="4.093"/><ellipse cx="1049.326" cy="1027.608" rx="10.113" ry="4.093"/><ellipse cx="1110.675" cy="1003.876" rx="10.113" ry="4.093"/><path d="M934.999 1128.407c-2.902 0-5.896-.484-8.882-1.466-4.858-1.597-9.374-4.482-13.059-8.344a2.999 2.999 0 1 1 4.34-4.142c3.007 3.15 6.669 5.497 10.592 6.787 6.319 2.076 12.596 1.346 17.224-2.005 4.237-3.067 6.571-8.037 6.571-13.992 0-13.065-11.788-24.964-24.731-24.964-3.143 0-6.03.728-8.581 2.161a3 3 0 0 1-2.939-5.231c3.459-1.944 7.335-2.931 11.521-2.931 16.371 0 30.731 14.469 30.731 30.964 0 7.931-3.215 14.626-9.054 18.853-3.937 2.85-8.696 4.31-13.733 4.31zm75.043-30.71c-2.902 0-5.897-.483-8.883-1.466-4.858-1.598-9.374-4.482-13.059-8.344a3 3 0 0 1 4.34-4.142c3.006 3.149 6.669 5.496 10.593 6.787 6.317 2.076 12.595 1.347 17.223-2.004 4.237-3.067 6.571-8.037 6.571-13.992 0-13.065-11.788-24.964-24.731-24.964-3.145 0-6.031.727-8.579 2.16a3 3 0 1 1-2.941-5.229c3.456-1.945 7.333-2.932 11.521-2.932 16.371 0 30.731 14.469 30.731 30.964 0 7.932-3.215 14.627-9.054 18.853-3.937 2.85-8.695 4.309-13.732 4.309zm59.777-23.057c-2.902 0-5.896-.484-8.882-1.466-4.858-1.598-9.374-4.482-13.059-8.344a2.999 2.999 0 1 1 4.34-4.142c3.006 3.149 6.669 5.496 10.593 6.787 6.314 2.075 12.595 1.346 17.223-2.005 4.237-3.067 6.571-8.037 6.571-13.992 0-13.064-11.788-24.963-24.731-24.963-3.144 0-6.031.727-8.581 2.16a3 3 0 1 1-2.939-5.231c3.458-1.944 7.334-2.93 11.521-2.93 16.371 0 30.731 14.469 30.731 30.963 0 7.932-3.215 14.627-9.053 18.853-3.938 2.851-8.696 4.31-13.734 4.31zm59.359-23.058c-2.903 0-5.897-.483-8.884-1.466-4.857-1.596-9.373-4.481-13.058-8.343a2.999 2.999 0 1 1 4.34-4.142c3.007 3.15 6.669 5.496 10.592 6.786 6.317 2.076 12.595 1.348 17.223-2.004 4.238-3.067 6.572-8.037 6.572-13.992 0-13.065-11.788-24.964-24.731-24.964-3.143 0-6.03.728-8.581 2.161a3 3 0 0 1-2.939-5.231c3.459-1.944 7.335-2.931 11.521-2.931 16.371 0 30.731 14.469 30.731 30.964 0 7.932-3.215 14.627-9.054 18.853-3.937 2.85-8.695 4.309-13.732 4.309z"/></g><path d="M732.102 396.651c106.419-71.635 319.167 195.573 340.382 384.556-11.024-50.98-271.563-1.065-351.15 36.889-73.524-188.507-50.12-380.459 10.768-421.445z" fill="#5D5DFF"/><path d="M807.479 697.149a3.002 3.002 0 0 1-2.912-2.287c-10.938-44.64-65.446-158.416-65.995-159.56a3 3 0 1 1 5.408-2.598c2.254 4.694 55.329 115.487 66.415 160.729a3 3 0 0 1-2.916 3.716z" fill="#fff"/><path d="M343.326 804.324C243.7 721.515 23.408 647.746 8.824 690.189-9.01 742.088 343.326 804.324 343.326 804.324z" fill="#5b2448"/><path d="M710.927 885.454c10.643 18.261 6.38 40.186-11.082 61.226-34.049 41.025-150.075 75.43-213.192 91.332-168.842 42.197-344.118 55.752-433.503-25.647-76.192-69.379-43.314-197.74-13.031-276.039 5.253-13.566 11.066-26.511 17.083-38.566 84.993 2.243 228.355 54.039 283.78 108.866.059.055.108.113.167.168s.121.119.18.174l.031.032c.003.01.013.007.016.016l-7.576 12.499s-10.059 17.305-9.401 17.498c9.337 2.873 102.421 15.657 163.635 7.062 56.515-7.936 66.215-49.26 77.629-84.238 5.066-15.525 16.171-.105 29.52 33.95 3.693 9.421-5.448 27.155 7.761 34.183 14.119-9.064 32.394-25.261 46.86-34.498 9.61-6.136 31.977-1.582 34.936 24.729 0 0 16.576 9.5 14.166 35.388 5.603 4.538 12.396 12.895 12.021 31.865z" fill="none"/><path d="M429.916 395.926C343.263 301.333 73.786 511.2 8.846 689.939c22.672-46.973 264.241 62.647 332.708 118.206 115.678-166.009 137.941-358.097 88.362-412.219z" fill="#f94f46"/><path d="M339.173 808.748a2.501 2.501 0 0 1-2.165-3.747c50.207-87.246 80.555-165.681 87.762-226.823a2.497 2.497 0 0 1 2.775-2.189 2.498 2.498 0 0 1 2.189 2.775c-7.389 62.691-37.129 139.648-88.393 228.731a2.496 2.496 0 0 1-2.168 1.253z" fill="#fcb6b1"/><path d="M429.916 395.926C343.263 301.333 73.786 511.2 8.846 689.939c22.672-46.973 264.241 62.647 332.708 118.206 115.678-166.009 137.941-358.097 88.362-412.219z" fill="none"/><path d="M1028.97 933.165C978.471 970 900.652 943.359 871.082 917.359c-50.85-43.87-56.527-155.062-96.157-355.394-18.215-92.08-56.842-150.677-65.219-166.898-13.487-26.119-24.137-46.246-2.117-49.056 0 0-14.741-31.971 15.625-33.384 0 0-13.278-26.125 13.891-29.585 1.42-11.5-4.515-29.016-9.495-38.505-14.97-28.46-9.38-43.117 20.07-20.997C794 258.32 881.717 370.431 923.98 440.3c159.833 264.233 198.846 424.403 104.99 492.865z" fill="#fff"/><path d="M968.776 954.289c-9.819 0-19.063-1.058-27.131-2.511-27.474-4.947-55.949-17.572-72.545-32.165-39.281-33.89-52.018-106.409-73.118-226.556-6.738-38.369-14.376-81.857-24.001-130.51-15.653-79.128-46.688-133.764-59.939-157.094-2.145-3.776-3.839-6.759-5.002-9.01l-.433-.84c-10.159-19.668-18.183-35.204-13.131-44.823 1.836-3.496 5.126-5.822 10.007-7.055-1.913-5.586-4.592-16.608.36-24.757 2.954-4.859 8.014-7.855 15.072-8.935-1.643-4.761-3.459-12.951.151-19.77 2.708-5.115 7.826-8.411 15.232-9.816.366-10.174-4.345-24.985-9.346-34.519-5.206-9.897-12.789-27.487-5.069-34.062 5.368-4.569 15.324-1.446 29.597 9.272 21.669 16.271 53.706 50.272 90.209 95.742 33.381 41.58 65.851 87.137 86.856 121.863 81.813 135.253 130.222 240.172 147.991 320.754 9.08 41.177 10.094 76.72 3.013 105.643-7.178 29.321-22.928 53.022-46.813 70.445l-1.768-2.424 1.768 2.424c-19.635 14.328-41.986 18.704-61.96 18.704zM725.99 215.804c-1.011 0-1.745.231-2.216.633-1.805 1.537-2.771 9.096 6.491 26.703 4.812 9.173 11.397 27.464 9.816 40.27a2.999 2.999 0 0 1-2.599 2.608c-6.664.85-11.073 3.218-13.105 7.039-3.891 7.319 1.458 18.107 1.513 18.216a3.004 3.004 0 0 1-2.537 4.351c-7.133.332-11.97 2.502-14.375 6.449-5.111 8.388 1.271 22.543 1.336 22.685a3.004 3.004 0 0 1-2.346 4.229c-4.886.624-7.889 2.123-9.181 4.583-3.599 6.854 4.537 22.604 13.15 39.281l.434.84c1.107 2.145 2.775 5.081 4.888 8.799 13.396 23.584 44.766 78.812 60.608 158.894 9.637 48.716 17.28 92.237 24.023 130.636 20.87 118.832 33.467 190.56 71.15 223.069 15.854 13.94 43.192 26.018 69.667 30.785 42.253 7.604 69.271-4.029 84.493-15.133 45.766-33.383 59.333-88.974 41.477-169.948-17.626-79.932-65.797-184.258-147.267-318.94-51.634-85.362-138.247-187.917-175.534-215.913-10.038-7.543-16.508-10.136-19.886-10.136z" fill="#232323"/><path d="M744.225 376.102a2.996 2.996 0 0 1-2.544-1.405c-9.091-14.488-26.119-25.228-36.319-26.168a3 3 0 1 1 .551-5.975c14.871 1.371 32.783 16.097 40.851 28.953a3 3 0 0 1-2.539 4.595zm15.902-31.337c-1.204 0-2.34-.73-2.8-1.921-1.772-4.592-8.073-11.727-15.679-17.752-7.764-6.153-15.257-9.857-19.096-9.438a3.01 3.01 0 0 1-3.308-2.657 3.001 3.001 0 0 1 2.657-3.308c7.894-.854 19.049 7.195 23.473 10.7 6.767 5.361 14.931 13.509 17.55 20.295a3 3 0 0 1-2.797 4.081zm8.803-41.672a2.989 2.989 0 0 1-2.199-.959c-7.718-8.311-23.647-15.316-29.003-15.8a3.002 3.002 0 0 1-2.718-3.259c.15-1.649 1.604-2.848 3.259-2.718 7.054.639 24.343 8.523 32.858 17.694a2.998 2.998 0 0 1-.157 4.239 2.982 2.982 0 0 1-2.04.803z" fill="#232323"/><path d="m566.663 753.266 29.201-16.582 126.389 222.578-29.201 16.582z" fill="#fff"/><path d="m593.609 744.865 120.463 212.143-18.766 10.656-120.463-212.143zm2.255-8.18-29.201 16.582 126.389 222.578 29.201-16.582zM722.26 959.264l-.742 17.585-.594 14.068-12.385-6.698-15.481-8.372z" fill="#232323"/><path d="m600.472 744.794-29.201 16.582-8.771-15.447a6.863 6.863 0 0 1 2.579-9.357l17.265-9.804a6.863 6.863 0 0 1 9.357 2.579zm-257.146 59.53C243.7 721.515 23.408 647.746 8.824 690.189-9.01 742.088 343.326 804.324 343.326 804.324z" fill="#232323"/><path d="M710.927 885.454c10.643 18.261 6.38 40.186-11.082 61.226-34.049 41.025-134.182 72.594-210.188 90.571-148.675 28.549-333.79 61.434-441.197-29.375C-24.138 939.989 6.455 806.3 29.653 735.625c6.378-24.6 20.406-53.891 26.423-65.946 84.993 2.243 229.481 82.121 284.906 136.948.059.055.108.113.167.168s.121.119.18.174l.031.032c.003.01.013.007.016.016l-9.94 16.608s94.658 19.098 155.871 10.503c22.087-3.434 44.56-8.297 58.311-24.817 15.111-18.155 20.445-48.081 20.886-51.645.635-5.131 3.766-4.289 3.766-4.289l20.219 35.881s2.737 28.838 12.454 38.713c15.871-2.849 32.394-25.261 46.86-34.498 9.61-6.136 31.977-1.582 34.936 24.729 0 0 16.576 9.5 14.166 35.388 5.604 4.537 12.397 12.894 12.022 31.864z" fill="#fff"/><path d="M250.174 1070.333c-89.146.001-155.781-19.692-203.651-60.165a2.106 2.106 0 0 1-.112-.1C-26.787 941.617 2.67 808.25 26.774 734.778c6.186-23.802 19.329-51.836 26.618-66.44a2.98 2.98 0 0 1 2.764-1.659c39.21 1.035 94.19 18.464 154.814 49.076 53.43 26.979 104.04 60.97 132.096 88.713.058.055.113.111.168.168l.109.106a9.143 9.143 0 0 1 .169.167 3 3 0 0 1 .438 3.648l-7.735 12.924c18.94 3.513 97.919 17.08 150.676 9.675 21.274-3.308 43.194-7.873 56.422-23.766 15.492-18.613 20.178-49.791 20.215-50.095.351-2.83 1.403-4.854 3.129-6.017 1.552-1.044 3.287-1.098 4.394-.801.777.21 1.438.723 1.834 1.425l20.219 35.882c.206.365.333.771.373 1.188.7 7.347 3.917 27.31 10.543 35.682 8.636-2.34 17.886-10.931 26.85-19.255 6.017-5.589 11.701-10.867 17.322-14.456 5.847-3.733 14.801-3.842 22.276-.274 5.45 2.601 14.77 9.379 17.077 25.794 4.075 2.935 15.976 13.487 14.476 35.835 8.147 7.261 12.054 17.878 11.919 32.379 10.728 19.151 6.561 41.814-11.785 63.919-37.268 44.903-148.7 76.648-211.807 91.575a1.73 1.73 0 0 1-.125.026c-81.411 15.633-160.77 29.7-236.622 30.125-1.144.008-2.292.011-3.427.011zm-199.721-64.698c47.337 39.989 113.794 59.231 203.112 58.688 75.323-.422 154.359-14.433 235.464-30.006 31.605-7.477 78.117-19.875 120.356-36.5 43.478-17.112 73.136-34.962 88.15-53.053 16.853-20.306 20.688-40.833 10.799-57.8a2.998 2.998 0 0 1-.407-1.57c.359-18.21-6.054-25.542-10.909-29.473a3.004 3.004 0 0 1-1.1-2.61c2.187-23.498-12.076-32.158-12.684-32.516a3.032 3.032 0 0 1-1.477-2.26c-1.213-10.786-6.141-18.76-13.876-22.451-6.524-3.114-13.107-2.227-16.464-.084-5.164 3.298-10.655 8.396-16.468 13.796-10.155 9.432-20.656 19.184-31.477 21.127a2.996 2.996 0 0 1-2.669-.849c-9.623-9.779-12.753-35.377-13.237-39.89l-18.092-32.107c-.86 6.855-6.983 35.646-21.553 53.15-14.565 17.501-37.704 22.372-60.155 25.863-61.059 8.569-155.974-10.334-156.926-10.527a2.998 2.998 0 0 1-1.98-4.482l8.728-14.582c-27.913-27.124-77.223-60.081-129.325-86.39-58.862-29.724-112.142-46.853-150.36-48.371-7.326 14.813-19.541 41.243-25.347 63.637a3.84 3.84 0 0 1-.054.183c-23.656 72.077-52.778 202.857 17.951 269.077zm439.203 31.617h.01z" fill="#232323"/><path d="M334.808 827.738c-.207 0-.418-.021-.629-.067-36.229-7.729-78.116-10.312-114.92-7.094-1.644.155-3.105-1.075-3.25-2.727a3 3 0 0 1 2.727-3.25c37.37-3.271 79.906-.645 116.695 7.203a3 3 0 0 1-.623 5.935zm320.58 27.068a2.999 2.999 0 0 1-1.766-5.427c7.571-5.496 25.36-19.907 27.032-34.982a3 3 0 1 1 5.962.662c-.801 7.222-5.694 21.915-29.47 39.176a2.981 2.981 0 0 1-1.758.571zm15.291 33.273a3.001 3.001 0 0 1-1.205-5.749c7.473-3.271 23.766-15.313 26.431-31.653a3 3 0 0 1 5.922.966c-2.952 18.101-19.936 31.8-29.946 36.183a3.007 3.007 0 0 1-1.202.253zm15.119 31.884a3 3 0 0 1-1.29-5.71c11.485-5.462 22.817-20.728 23.317-31.412.077-1.654 1.478-2.896 3.138-2.856a3 3 0 0 1 2.856 3.138c-.609 12.987-13.102 30.066-26.735 36.549a2.986 2.986 0 0 1-1.286.291z" fill="#232323"/><path d="M710.927 885.454c10.643 18.261 6.38 40.186-11.082 61.226-34.049 41.025-150.075 75.43-213.192 91.332-168.842 42.197-344.118 55.752-433.503-25.647-76.192-69.379-43.314-197.74-13.031-276.039 5.253-13.566 11.066-26.511 17.083-38.566 84.993 2.243 228.355 54.039 283.78 108.866.059.055.108.113.167.168s.121.119.18.174l.031.032c.003.01.013.007.016.016l-7.576 12.499s-10.059 17.305-9.401 17.498c9.337 2.873 102.421 15.657 163.635 7.062 56.515-7.936 66.215-49.26 77.629-84.238 5.066-15.525 16.171-.105 29.52 33.95 3.693 9.421-5.448 27.155 7.761 34.183 14.119-9.064 32.394-25.261 46.86-34.498 9.61-6.136 31.977-1.582 34.936 24.729 0 0 16.576 9.5 14.166 35.388 5.603 4.538 12.396 12.895 12.021 31.865z" fill="none"/><path d="M429.916 395.926C343.263 301.333 73.786 511.2 8.846 689.939c22.672-46.973 264.241 62.647 332.708 118.206 115.678-166.009 137.941-358.097 88.362-412.219z" fill="#5D5DFF"/><path d="M339.172 809.249a3 3 0 0 1-2.597-4.497c50.174-87.188 80.5-165.557 87.698-226.633a3.004 3.004 0 0 1 3.331-2.628 3 3 0 0 1 2.628 3.331c-7.397 62.76-37.158 139.78-88.456 228.922a3.002 3.002 0 0 1-2.604 1.505z" fill="#fff"/><path d="M429.916 395.926C343.263 301.333 73.786 511.2 8.846 689.939c22.672-46.973 264.241 62.647 332.708 118.206 115.678-166.009 137.941-358.097 88.362-412.219z" fill="none"/><path d="M531.468 534.86c-15.231 0-30.608-15.453-46.998-47.225-18.371-35.611-41.148-92.011-49.869-117.382a3 3 0 1 1 5.673-1.951c8.663 25.203 31.285 81.221 49.527 116.583 15.055 29.182 29.074 43.975 41.674 43.975l.267-.002c19.017-.315 34.984-33.962 49.072-63.647 2.358-4.97 4.586-9.664 6.85-14.269a3.002 3.002 0 0 1 5.385 2.649c-2.246 4.566-4.465 9.242-6.814 14.192-15.562 32.79-31.652 66.696-54.393 67.074-.124.002-.25.003-.374.003z" fill="#fff"/><path d="M657.011 524.622c-16.552 0-39.076-23.569-67.062-70.21a3 3 0 1 1 5.144-3.088c37.984 63.307 56.822 69.099 64.676 66.933 9.099-2.521 14.751-19.175 14.751-43.465 0-18.481-3.596-76.048-12.089-102.296a3 3 0 1 1 5.709-1.847c8.697 26.881 12.38 85.393 12.38 104.144 0 12.266-1.407 23.075-4.069 31.261-3.274 10.07-8.349 16.122-15.08 17.986a16.331 16.331 0 0 1-4.36.582z" fill="#fff"/><path d="M625.181 597.942c-7.198 0-12.99-1.765-17.57-5.331-11.73-9.134-13.728-29.155-15.842-50.353-4.281-42.929-3.257-89.989-3.246-90.46.038-1.655 1.429-2.985 3.068-2.93a3 3 0 0 1 2.93 3.068c-.011.467-1.025 47.172 3.219 89.726 2.329 23.354 4.531 39.187 13.558 46.214 4.81 3.743 11.694 4.884 21.042 3.49a3 3 0 0 1 .887 5.933c-2.859.429-5.539.643-8.046.643z" fill="#fff"/><circle cx="607.001" cy="500.152" fill="#fff" r="4.637"/><circle cx="611.801" cy="552.85" fill="#fff" r="4.637"/></svg></g><g transform="translate(1803.0 456.0) rotate(0.0 92.5 19.5) scale(1.3328338208383166 1.3540726338448719)"><svg width="138.802" height="28.802" viewBox="0 0 138.802 28.802"><g fill="#232323"><circle cx="14.401" cy="14.401" r="14.401"/><circle cx="69.401" cy="14.401" r="14.401"/><circle cx="124.401" cy="14.401" r="14.401"/></g></svg></g></svg>